%TF.GenerationSoftware,KiCad,Pcbnew,6.0.10-86aedd382b~118~ubuntu20.04.1*%
%TF.CreationDate,2023-01-20T20:18:30+03:00*%
%TF.ProjectId,PMSM_driver,504d534d-5f64-4726-9976-65722e6b6963,v0.1*%
%TF.SameCoordinates,Original*%
%TF.FileFunction,Legend,Bot*%
%TF.FilePolarity,Positive*%
%FSLAX46Y46*%
G04 Gerber Fmt 4.6, Leading zero omitted, Abs format (unit mm)*
G04 Created by KiCad (PCBNEW 6.0.10-86aedd382b~118~ubuntu20.04.1) date 2023-01-20 20:18:30*
%MOMM*%
%LPD*%
G01*
G04 APERTURE LIST*
G04 Aperture macros list*
%AMFreePoly0*
4,1,22,0.500000,-0.750000,0.000000,-0.750000,0.000000,-0.745033,-0.079941,-0.743568,-0.215256,-0.701293,-0.333266,-0.622738,-0.424486,-0.514219,-0.481581,-0.384460,-0.499164,-0.250000,-0.500000,-0.250000,-0.500000,0.250000,-0.499164,0.250000,-0.499963,0.256109,-0.478152,0.396186,-0.417904,0.524511,-0.324060,0.630769,-0.204165,0.706417,-0.067858,0.745374,0.000000,0.744959,0.000000,0.750000,
0.500000,0.750000,0.500000,-0.750000,0.500000,-0.750000,$1*%
%AMFreePoly1*
4,1,20,0.000000,0.744959,0.073905,0.744508,0.209726,0.703889,0.328688,0.626782,0.421226,0.519385,0.479903,0.390333,0.500000,0.250000,0.500000,-0.250000,0.499851,-0.262216,0.476331,-0.402017,0.414519,-0.529596,0.319384,-0.634700,0.198574,-0.708877,0.061801,-0.746166,0.000000,-0.745033,0.000000,-0.750000,-0.500000,-0.750000,-0.500000,0.750000,0.000000,0.750000,0.000000,0.744959,
0.000000,0.744959,$1*%
G04 Aperture macros list end*
%ADD10C,0.076200*%
%ADD11C,0.152400*%
%ADD12R,2.200000X2.200000*%
%ADD13O,2.200000X2.200000*%
%ADD14R,1.700000X1.700000*%
%ADD15O,1.700000X1.700000*%
%ADD16R,2.600000X2.600000*%
%ADD17C,2.600000*%
%ADD18R,1.600000X1.600000*%
%ADD19O,1.600000X1.600000*%
%ADD20FreePoly0,270.000000*%
%ADD21FreePoly1,270.000000*%
G04 APERTURE END LIST*
D10*
%TO.C,JP1*%
X98921809Y-88176666D02*
X99284666Y-88176666D01*
X99357238Y-88152476D01*
X99405619Y-88104095D01*
X99429809Y-88031523D01*
X99429809Y-87983142D01*
X99429809Y-88418571D02*
X98921809Y-88418571D01*
X98921809Y-88612095D01*
X98946000Y-88660476D01*
X98970190Y-88684666D01*
X99018571Y-88708857D01*
X99091142Y-88708857D01*
X99139523Y-88684666D01*
X99163714Y-88660476D01*
X99187904Y-88612095D01*
X99187904Y-88418571D01*
X99429809Y-89192666D02*
X99429809Y-88902380D01*
X99429809Y-89047523D02*
X98921809Y-89047523D01*
X98994380Y-88999142D01*
X99042761Y-88950761D01*
X99066952Y-88902380D01*
D11*
X101300000Y-87200000D02*
X100700000Y-87200000D01*
X102000000Y-89300000D02*
X102000000Y-87900000D01*
X100000000Y-87900000D02*
X100000000Y-89300000D01*
X100700000Y-90000000D02*
X101300000Y-90000000D01*
X100700000Y-87200000D02*
G75*
G03*
X100000000Y-87900000I-1J-699999D01*
G01*
X102000000Y-87900000D02*
G75*
G03*
X101300000Y-87200000I-699999J1D01*
G01*
X100000000Y-89300000D02*
G75*
G03*
X100700000Y-90000000I700000J0D01*
G01*
X101300000Y-90000000D02*
G75*
G03*
X102000000Y-89300000I0J700000D01*
G01*
%TD*%
%LPC*%
D12*
%TO.C,D2*%
X114600000Y-78300000D03*
D13*
X104440000Y-78300000D03*
%TD*%
D14*
%TO.C,J1*%
X174000000Y-79500000D03*
D15*
X174000000Y-82040000D03*
X174000000Y-84580000D03*
%TD*%
D14*
%TO.C,J10*%
X151000000Y-84000000D03*
D15*
X153540000Y-84000000D03*
X151000000Y-86540000D03*
X153540000Y-86540000D03*
%TD*%
D16*
%TO.C,J2*%
X180000000Y-57695000D03*
D17*
X175000000Y-57695000D03*
%TD*%
D12*
%TO.C,D1*%
X114600000Y-55400000D03*
D13*
X104440000Y-55400000D03*
%TD*%
D16*
%TO.C,J6*%
X105695000Y-66000000D03*
D17*
X105695000Y-71000000D03*
%TD*%
D18*
%TO.C,U1*%
X125720000Y-72840000D03*
D19*
X125720000Y-70300000D03*
X125720000Y-67760000D03*
X125720000Y-65220000D03*
X125720000Y-62680000D03*
X125720000Y-60140000D03*
X125720000Y-57600000D03*
X118100000Y-57600000D03*
X118100000Y-60140000D03*
X118100000Y-62680000D03*
X118100000Y-65220000D03*
X118100000Y-67760000D03*
X118100000Y-70300000D03*
X118100000Y-72840000D03*
%TD*%
D14*
%TO.C,J12*%
X140500000Y-109000000D03*
D15*
X143040000Y-109000000D03*
X140500000Y-111540000D03*
X143040000Y-111540000D03*
%TD*%
D14*
%TO.C,J8*%
X140500000Y-68000000D03*
D15*
X143040000Y-68000000D03*
X140500000Y-70540000D03*
X143040000Y-70540000D03*
%TD*%
D14*
%TO.C,J11*%
X140500000Y-84000000D03*
D15*
X143040000Y-84000000D03*
X140500000Y-86540000D03*
X143040000Y-86540000D03*
%TD*%
D18*
%TO.C,U3*%
X125750000Y-121700000D03*
D19*
X125750000Y-119160000D03*
X125750000Y-116620000D03*
X125750000Y-114080000D03*
X125750000Y-111540000D03*
X125750000Y-109000000D03*
X125750000Y-106460000D03*
X118130000Y-106460000D03*
X118130000Y-109000000D03*
X118130000Y-111540000D03*
X118130000Y-114080000D03*
X118130000Y-116620000D03*
X118130000Y-119160000D03*
X118130000Y-121700000D03*
%TD*%
D14*
%TO.C,J13*%
X151000000Y-109000000D03*
D15*
X153540000Y-109000000D03*
X151000000Y-111540000D03*
X153540000Y-111540000D03*
%TD*%
D14*
%TO.C,J7*%
X105000000Y-83540000D03*
D15*
X107540000Y-83540000D03*
X105000000Y-86080000D03*
X107540000Y-86080000D03*
X105000000Y-88620000D03*
X107540000Y-88620000D03*
X105000000Y-91160000D03*
X107540000Y-91160000D03*
X105000000Y-93700000D03*
X107540000Y-93700000D03*
%TD*%
D18*
%TO.C,U2*%
X125745400Y-96240000D03*
D19*
X125745400Y-93700000D03*
X125745400Y-91160000D03*
X125745400Y-88620000D03*
X125745400Y-86080000D03*
X125745400Y-83540000D03*
X125745400Y-81000000D03*
X118125400Y-81000000D03*
X118125400Y-83540000D03*
X118125400Y-86080000D03*
X118125400Y-88620000D03*
X118125400Y-91160000D03*
X118125400Y-93700000D03*
X118125400Y-96240000D03*
%TD*%
D12*
%TO.C,D3*%
X114600000Y-101300000D03*
D13*
X104440000Y-101300000D03*
%TD*%
D14*
%TO.C,J9*%
X151000000Y-68000000D03*
D15*
X153540000Y-68000000D03*
X151000000Y-70540000D03*
X153540000Y-70540000D03*
%TD*%
D20*
%TO.C,JP1*%
X101000000Y-87950000D03*
D21*
X101000000Y-89250000D03*
%TD*%
M02*
