M48
; DRILL file {KiCad 6.0.10-86aedd382b~118~ubuntu20.04.1} date Пят 20 сту 2023 20:18:42
; FORMAT={-:-/ absolute / metric / decimal}
; #@! TF.CreationDate,2023-01-20T20:18:42+03:00
; #@! TF.GenerationSoftware,Kicad,Pcbnew,6.0.10-86aedd382b~118~ubuntu20.04.1
; #@! TF.FileFunction,Plated,1,2,PTH
FMAT,2
METRIC
; #@! TA.AperFunction,Plated,PTH,ViaDrill
T1C0.500
; #@! TA.AperFunction,Plated,PTH,ComponentDrill
T2C0.800
; #@! TA.AperFunction,Plated,PTH,ViaDrill
T3C1.000
; #@! TA.AperFunction,Plated,PTH,ComponentDrill
T4C1.000
; #@! TA.AperFunction,Plated,PTH,ComponentDrill
T5C1.100
; #@! TA.AperFunction,Plated,PTH,ComponentDrill
T6C1.300
%
G90
G05
T1
X110.3Y-87.65
X111.95Y-62.75
X113.4Y-115.2
X117.3Y-99.25
X120.4Y-114.075
X120.85Y-83.55
X121.875Y-91.925
X121.925Y-119.15
X123.4Y-65.2
X125.75Y-75.75
X128.4Y-82.65
X128.5Y-59.25
X128.55Y-108.1
X131.425Y-117.275
X133.63Y-86.08
X135.25Y-110.75
X136.11Y-69.04
X137.0Y-74.75
X137.1Y-59.025
X137.45Y-93.75
X138.1Y-121.8
X139.5Y-101.0
X140.0Y-93.5
X141.5Y-62.9
X143.0Y-80.25
X143.0Y-117.5
X143.5Y-91.0
X149.75Y-62.0
X150.0Y-124.0
X150.25Y-60.1
X150.7Y-54.85
X150.7Y-56.2
X150.7Y-57.55
X151.0Y-105.6
X151.25Y-94.5
X151.65Y-53.9
X153.05Y-53.9
X153.25Y-76.0
X153.5Y-117.0
X154.175Y-121.905
X155.25Y-124.0
X156.25Y-62.0
X156.425Y-72.25
X156.5Y-93.0
X156.7Y-98.85
X156.7Y-100.2
X156.7Y-101.55
X156.7Y-116.85
X156.7Y-118.2
X156.7Y-119.55
X157.0Y-103.9
X157.65Y-97.9
X157.65Y-115.875
X158.95Y-115.875
X159.0Y-97.9
X159.65Y-76.55
X160.35Y-97.9
X161.1Y-74.4
X162.5Y-113.75
X163.0Y-62.5
X164.2Y-71.3
X165.8Y-71.7
X166.5Y-87.05
X167.0Y-80.75
X175.55Y-107.7
X176.8Y-75.95
T2
X118.1Y-57.6
X118.1Y-60.14
X118.1Y-62.68
X118.1Y-65.22
X118.1Y-67.76
X118.1Y-70.3
X118.1Y-72.84
X118.125Y-81.0
X118.125Y-83.54
X118.125Y-86.08
X118.125Y-88.62
X118.125Y-91.16
X118.125Y-93.7
X118.125Y-96.24
X118.13Y-106.46
X118.13Y-109.0
X118.13Y-111.54
X118.13Y-114.08
X118.13Y-116.62
X118.13Y-119.16
X118.13Y-121.7
X125.72Y-57.6
X125.72Y-60.14
X125.72Y-62.68
X125.72Y-65.22
X125.72Y-67.76
X125.72Y-70.3
X125.72Y-72.84
X125.745Y-81.0
X125.745Y-83.54
X125.745Y-86.08
X125.745Y-88.62
X125.745Y-91.16
X125.745Y-93.7
X125.745Y-96.24
X125.75Y-106.46
X125.75Y-109.0
X125.75Y-111.54
X125.75Y-114.08
X125.75Y-116.62
X125.75Y-119.16
X125.75Y-121.7
T3
X118.75Y-76.0
X123.075Y-76.0
T4
X105.0Y-83.54
X105.0Y-86.08
X105.0Y-88.62
X105.0Y-91.16
X105.0Y-93.7
X107.54Y-83.54
X107.54Y-86.08
X107.54Y-88.62
X107.54Y-91.16
X107.54Y-93.7
X140.5Y-68.0
X140.5Y-70.54
X140.5Y-84.0
X140.5Y-86.54
X140.5Y-109.0
X140.5Y-111.54
X143.04Y-68.0
X143.04Y-70.54
X143.04Y-84.0
X143.04Y-86.54
X143.04Y-109.0
X143.04Y-111.54
X151.0Y-68.0
X151.0Y-70.54
X151.0Y-84.0
X151.0Y-86.54
X151.0Y-109.0
X151.0Y-111.54
X153.54Y-68.0
X153.54Y-70.54
X153.54Y-84.0
X153.54Y-86.54
X153.54Y-109.0
X153.54Y-111.54
X174.0Y-79.5
X174.0Y-82.04
X174.0Y-84.58
T5
X104.44Y-55.4
X104.44Y-78.3
X104.44Y-101.3
X114.6Y-55.4
X114.6Y-78.3
X114.6Y-101.3
T6
X105.695Y-66.0
X105.695Y-71.0
X175.0Y-57.695
X180.0Y-57.695
T0
M30
