%TF.GenerationSoftware,KiCad,Pcbnew,6.0.10-86aedd382b~118~ubuntu20.04.1*%
%TF.CreationDate,2023-01-20T20:18:30+03:00*%
%TF.ProjectId,PMSM_driver,504d534d-5f64-4726-9976-65722e6b6963,v0.1*%
%TF.SameCoordinates,Original*%
%TF.FileFunction,Paste,Top*%
%TF.FilePolarity,Positive*%
%FSLAX46Y46*%
G04 Gerber Fmt 4.6, Leading zero omitted, Abs format (unit mm)*
G04 Created by KiCad (PCBNEW 6.0.10-86aedd382b~118~ubuntu20.04.1) date 2023-01-20 20:18:30*
%MOMM*%
%LPD*%
G01*
G04 APERTURE LIST*
G04 Aperture macros list*
%AMRoundRect*
0 Rectangle with rounded corners*
0 $1 Rounding radius*
0 $2 $3 $4 $5 $6 $7 $8 $9 X,Y pos of 4 corners*
0 Add a 4 corners polygon primitive as box body*
4,1,4,$2,$3,$4,$5,$6,$7,$8,$9,$2,$3,0*
0 Add four circle primitives for the rounded corners*
1,1,$1+$1,$2,$3*
1,1,$1+$1,$4,$5*
1,1,$1+$1,$6,$7*
1,1,$1+$1,$8,$9*
0 Add four rect primitives between the rounded corners*
20,1,$1+$1,$2,$3,$4,$5,0*
20,1,$1+$1,$4,$5,$6,$7,0*
20,1,$1+$1,$6,$7,$8,$9,0*
20,1,$1+$1,$8,$9,$2,$3,0*%
G04 Aperture macros list end*
%ADD10C,0.010000*%
%ADD11RoundRect,0.250000X-0.475000X0.337500X-0.475000X-0.337500X0.475000X-0.337500X0.475000X0.337500X0*%
%ADD12RoundRect,0.237500X0.237500X-0.250000X0.237500X0.250000X-0.237500X0.250000X-0.237500X-0.250000X0*%
%ADD13RoundRect,0.237500X-0.250000X-0.237500X0.250000X-0.237500X0.250000X0.237500X-0.250000X0.237500X0*%
%ADD14RoundRect,0.237500X-0.237500X0.250000X-0.237500X-0.250000X0.237500X-0.250000X0.237500X0.250000X0*%
%ADD15RoundRect,0.250000X1.100000X-0.412500X1.100000X0.412500X-1.100000X0.412500X-1.100000X-0.412500X0*%
%ADD16R,0.900000X0.950000*%
%ADD17R,0.600000X2.000000*%
%ADD18RoundRect,0.250000X0.337500X0.475000X-0.337500X0.475000X-0.337500X-0.475000X0.337500X-0.475000X0*%
%ADD19RoundRect,0.250000X0.475000X-0.337500X0.475000X0.337500X-0.475000X0.337500X-0.475000X-0.337500X0*%
%ADD20RoundRect,0.237500X0.250000X0.237500X-0.250000X0.237500X-0.250000X-0.237500X0.250000X-0.237500X0*%
%ADD21RoundRect,0.249999X0.450001X1.425001X-0.450001X1.425001X-0.450001X-1.425001X0.450001X-1.425001X0*%
%ADD22RoundRect,0.250000X-0.412500X-1.100000X0.412500X-1.100000X0.412500X1.100000X-0.412500X1.100000X0*%
G04 APERTURE END LIST*
%TO.C,Q5*%
G36*
X169642500Y-123155000D02*
G01*
X168242500Y-123155000D01*
X168242500Y-122655000D01*
X169642500Y-122655000D01*
X169642500Y-123155000D01*
G37*
D10*
X169642500Y-123155000D02*
X168242500Y-123155000D01*
X168242500Y-122655000D01*
X169642500Y-122655000D01*
X169642500Y-123155000D01*
G36*
X172482000Y-120900000D02*
G01*
X170982000Y-120900000D01*
X170982000Y-119400000D01*
X172482000Y-119400000D01*
X172482000Y-120900000D01*
G37*
X172482000Y-120900000D02*
X170982000Y-120900000D01*
X170982000Y-119400000D01*
X172482000Y-119400000D01*
X172482000Y-120900000D01*
G36*
X175657000Y-120615000D02*
G01*
X174457000Y-120615000D01*
X174457000Y-120115000D01*
X175657000Y-120115000D01*
X175657000Y-120615000D01*
G37*
X175657000Y-120615000D02*
X174457000Y-120615000D01*
X174457000Y-120115000D01*
X175657000Y-120115000D01*
X175657000Y-120615000D01*
G36*
X174182000Y-120900000D02*
G01*
X172682000Y-120900000D01*
X172682000Y-119400000D01*
X174182000Y-119400000D01*
X174182000Y-120900000D01*
G37*
X174182000Y-120900000D02*
X172682000Y-120900000D01*
X172682000Y-119400000D01*
X174182000Y-119400000D01*
X174182000Y-120900000D01*
G36*
X175657000Y-123155000D02*
G01*
X174457000Y-123155000D01*
X174457000Y-122655000D01*
X175657000Y-122655000D01*
X175657000Y-123155000D01*
G37*
X175657000Y-123155000D02*
X174457000Y-123155000D01*
X174457000Y-122655000D01*
X175657000Y-122655000D01*
X175657000Y-123155000D01*
G36*
X169642500Y-121885000D02*
G01*
X168242500Y-121885000D01*
X168242500Y-121385000D01*
X169642500Y-121385000D01*
X169642500Y-121885000D01*
G37*
X169642500Y-121885000D02*
X168242500Y-121885000D01*
X168242500Y-121385000D01*
X169642500Y-121385000D01*
X169642500Y-121885000D01*
G36*
X169642500Y-120615000D02*
G01*
X168242500Y-120615000D01*
X168242500Y-120115000D01*
X169642500Y-120115000D01*
X169642500Y-120615000D01*
G37*
X169642500Y-120615000D02*
X168242500Y-120615000D01*
X168242500Y-120115000D01*
X169642500Y-120115000D01*
X169642500Y-120615000D01*
G36*
X172482000Y-122600000D02*
G01*
X170982000Y-122600000D01*
X170982000Y-121100000D01*
X172482000Y-121100000D01*
X172482000Y-122600000D01*
G37*
X172482000Y-122600000D02*
X170982000Y-122600000D01*
X170982000Y-121100000D01*
X172482000Y-121100000D01*
X172482000Y-122600000D01*
G36*
X175657000Y-121885000D02*
G01*
X174457000Y-121885000D01*
X174457000Y-121385000D01*
X175657000Y-121385000D01*
X175657000Y-121885000D01*
G37*
X175657000Y-121885000D02*
X174457000Y-121885000D01*
X174457000Y-121385000D01*
X175657000Y-121385000D01*
X175657000Y-121885000D01*
G36*
X175657000Y-119345000D02*
G01*
X174457000Y-119345000D01*
X174457000Y-118845000D01*
X175657000Y-118845000D01*
X175657000Y-119345000D01*
G37*
X175657000Y-119345000D02*
X174457000Y-119345000D01*
X174457000Y-118845000D01*
X175657000Y-118845000D01*
X175657000Y-119345000D01*
G36*
X169642500Y-119345000D02*
G01*
X168242500Y-119345000D01*
X168242500Y-118845000D01*
X169642500Y-118845000D01*
X169642500Y-119345000D01*
G37*
X169642500Y-119345000D02*
X168242500Y-119345000D01*
X168242500Y-118845000D01*
X169642500Y-118845000D01*
X169642500Y-119345000D01*
G36*
X174182000Y-122600000D02*
G01*
X172682000Y-122600000D01*
X172682000Y-121100000D01*
X174182000Y-121100000D01*
X174182000Y-122600000D01*
G37*
X174182000Y-122600000D02*
X172682000Y-122600000D01*
X172682000Y-121100000D01*
X174182000Y-121100000D01*
X174182000Y-122600000D01*
%TO.C,Q3*%
G36*
X169642500Y-102615000D02*
G01*
X168242500Y-102615000D01*
X168242500Y-102115000D01*
X169642500Y-102115000D01*
X169642500Y-102615000D01*
G37*
X169642500Y-102615000D02*
X168242500Y-102615000D01*
X168242500Y-102115000D01*
X169642500Y-102115000D01*
X169642500Y-102615000D01*
G36*
X169642500Y-103885000D02*
G01*
X168242500Y-103885000D01*
X168242500Y-103385000D01*
X169642500Y-103385000D01*
X169642500Y-103885000D01*
G37*
X169642500Y-103885000D02*
X168242500Y-103885000D01*
X168242500Y-103385000D01*
X169642500Y-103385000D01*
X169642500Y-103885000D01*
G36*
X169642500Y-101345000D02*
G01*
X168242500Y-101345000D01*
X168242500Y-100845000D01*
X169642500Y-100845000D01*
X169642500Y-101345000D01*
G37*
X169642500Y-101345000D02*
X168242500Y-101345000D01*
X168242500Y-100845000D01*
X169642500Y-100845000D01*
X169642500Y-101345000D01*
G36*
X175657000Y-101345000D02*
G01*
X174457000Y-101345000D01*
X174457000Y-100845000D01*
X175657000Y-100845000D01*
X175657000Y-101345000D01*
G37*
X175657000Y-101345000D02*
X174457000Y-101345000D01*
X174457000Y-100845000D01*
X175657000Y-100845000D01*
X175657000Y-101345000D01*
G36*
X175657000Y-102615000D02*
G01*
X174457000Y-102615000D01*
X174457000Y-102115000D01*
X175657000Y-102115000D01*
X175657000Y-102615000D01*
G37*
X175657000Y-102615000D02*
X174457000Y-102615000D01*
X174457000Y-102115000D01*
X175657000Y-102115000D01*
X175657000Y-102615000D01*
G36*
X175657000Y-103885000D02*
G01*
X174457000Y-103885000D01*
X174457000Y-103385000D01*
X175657000Y-103385000D01*
X175657000Y-103885000D01*
G37*
X175657000Y-103885000D02*
X174457000Y-103885000D01*
X174457000Y-103385000D01*
X175657000Y-103385000D01*
X175657000Y-103885000D01*
G36*
X169642500Y-105155000D02*
G01*
X168242500Y-105155000D01*
X168242500Y-104655000D01*
X169642500Y-104655000D01*
X169642500Y-105155000D01*
G37*
X169642500Y-105155000D02*
X168242500Y-105155000D01*
X168242500Y-104655000D01*
X169642500Y-104655000D01*
X169642500Y-105155000D01*
G36*
X174182000Y-104600000D02*
G01*
X172682000Y-104600000D01*
X172682000Y-103100000D01*
X174182000Y-103100000D01*
X174182000Y-104600000D01*
G37*
X174182000Y-104600000D02*
X172682000Y-104600000D01*
X172682000Y-103100000D01*
X174182000Y-103100000D01*
X174182000Y-104600000D01*
G36*
X175657000Y-105155000D02*
G01*
X174457000Y-105155000D01*
X174457000Y-104655000D01*
X175657000Y-104655000D01*
X175657000Y-105155000D01*
G37*
X175657000Y-105155000D02*
X174457000Y-105155000D01*
X174457000Y-104655000D01*
X175657000Y-104655000D01*
X175657000Y-105155000D01*
G36*
X172482000Y-102900000D02*
G01*
X170982000Y-102900000D01*
X170982000Y-101400000D01*
X172482000Y-101400000D01*
X172482000Y-102900000D01*
G37*
X172482000Y-102900000D02*
X170982000Y-102900000D01*
X170982000Y-101400000D01*
X172482000Y-101400000D01*
X172482000Y-102900000D01*
G36*
X172482000Y-104600000D02*
G01*
X170982000Y-104600000D01*
X170982000Y-103100000D01*
X172482000Y-103100000D01*
X172482000Y-104600000D01*
G37*
X172482000Y-104600000D02*
X170982000Y-104600000D01*
X170982000Y-103100000D01*
X172482000Y-103100000D01*
X172482000Y-104600000D01*
G36*
X174182000Y-102900000D02*
G01*
X172682000Y-102900000D01*
X172682000Y-101400000D01*
X174182000Y-101400000D01*
X174182000Y-102900000D01*
G37*
X174182000Y-102900000D02*
X172682000Y-102900000D01*
X172682000Y-101400000D01*
X174182000Y-101400000D01*
X174182000Y-102900000D01*
%TO.C,Q6*%
G36*
X165657000Y-122155000D02*
G01*
X164457000Y-122155000D01*
X164457000Y-121655000D01*
X165657000Y-121655000D01*
X165657000Y-122155000D01*
G37*
X165657000Y-122155000D02*
X164457000Y-122155000D01*
X164457000Y-121655000D01*
X165657000Y-121655000D01*
X165657000Y-122155000D01*
G36*
X162482000Y-121600000D02*
G01*
X160982000Y-121600000D01*
X160982000Y-120100000D01*
X162482000Y-120100000D01*
X162482000Y-121600000D01*
G37*
X162482000Y-121600000D02*
X160982000Y-121600000D01*
X160982000Y-120100000D01*
X162482000Y-120100000D01*
X162482000Y-121600000D01*
G36*
X162482000Y-119900000D02*
G01*
X160982000Y-119900000D01*
X160982000Y-118400000D01*
X162482000Y-118400000D01*
X162482000Y-119900000D01*
G37*
X162482000Y-119900000D02*
X160982000Y-119900000D01*
X160982000Y-118400000D01*
X162482000Y-118400000D01*
X162482000Y-119900000D01*
G36*
X159642500Y-119615000D02*
G01*
X158242500Y-119615000D01*
X158242500Y-119115000D01*
X159642500Y-119115000D01*
X159642500Y-119615000D01*
G37*
X159642500Y-119615000D02*
X158242500Y-119615000D01*
X158242500Y-119115000D01*
X159642500Y-119115000D01*
X159642500Y-119615000D01*
G36*
X159642500Y-122155000D02*
G01*
X158242500Y-122155000D01*
X158242500Y-121655000D01*
X159642500Y-121655000D01*
X159642500Y-122155000D01*
G37*
X159642500Y-122155000D02*
X158242500Y-122155000D01*
X158242500Y-121655000D01*
X159642500Y-121655000D01*
X159642500Y-122155000D01*
G36*
X164182000Y-119900000D02*
G01*
X162682000Y-119900000D01*
X162682000Y-118400000D01*
X164182000Y-118400000D01*
X164182000Y-119900000D01*
G37*
X164182000Y-119900000D02*
X162682000Y-119900000D01*
X162682000Y-118400000D01*
X164182000Y-118400000D01*
X164182000Y-119900000D01*
G36*
X159642500Y-120885000D02*
G01*
X158242500Y-120885000D01*
X158242500Y-120385000D01*
X159642500Y-120385000D01*
X159642500Y-120885000D01*
G37*
X159642500Y-120885000D02*
X158242500Y-120885000D01*
X158242500Y-120385000D01*
X159642500Y-120385000D01*
X159642500Y-120885000D01*
G36*
X164182000Y-121600000D02*
G01*
X162682000Y-121600000D01*
X162682000Y-120100000D01*
X164182000Y-120100000D01*
X164182000Y-121600000D01*
G37*
X164182000Y-121600000D02*
X162682000Y-121600000D01*
X162682000Y-120100000D01*
X164182000Y-120100000D01*
X164182000Y-121600000D01*
G36*
X165657000Y-120885000D02*
G01*
X164457000Y-120885000D01*
X164457000Y-120385000D01*
X165657000Y-120385000D01*
X165657000Y-120885000D01*
G37*
X165657000Y-120885000D02*
X164457000Y-120885000D01*
X164457000Y-120385000D01*
X165657000Y-120385000D01*
X165657000Y-120885000D01*
G36*
X165657000Y-118345000D02*
G01*
X164457000Y-118345000D01*
X164457000Y-117845000D01*
X165657000Y-117845000D01*
X165657000Y-118345000D01*
G37*
X165657000Y-118345000D02*
X164457000Y-118345000D01*
X164457000Y-117845000D01*
X165657000Y-117845000D01*
X165657000Y-118345000D01*
G36*
X165657000Y-119615000D02*
G01*
X164457000Y-119615000D01*
X164457000Y-119115000D01*
X165657000Y-119115000D01*
X165657000Y-119615000D01*
G37*
X165657000Y-119615000D02*
X164457000Y-119615000D01*
X164457000Y-119115000D01*
X165657000Y-119115000D01*
X165657000Y-119615000D01*
G36*
X159642500Y-118345000D02*
G01*
X158242500Y-118345000D01*
X158242500Y-117845000D01*
X159642500Y-117845000D01*
X159642500Y-118345000D01*
G37*
X159642500Y-118345000D02*
X158242500Y-118345000D01*
X158242500Y-117845000D01*
X159642500Y-117845000D01*
X159642500Y-118345000D01*
%TO.C,Q1*%
G36*
X168182000Y-60600000D02*
G01*
X166682000Y-60600000D01*
X166682000Y-59100000D01*
X168182000Y-59100000D01*
X168182000Y-60600000D01*
G37*
X168182000Y-60600000D02*
X166682000Y-60600000D01*
X166682000Y-59100000D01*
X168182000Y-59100000D01*
X168182000Y-60600000D01*
G36*
X169657000Y-57345000D02*
G01*
X168457000Y-57345000D01*
X168457000Y-56845000D01*
X169657000Y-56845000D01*
X169657000Y-57345000D01*
G37*
X169657000Y-57345000D02*
X168457000Y-57345000D01*
X168457000Y-56845000D01*
X169657000Y-56845000D01*
X169657000Y-57345000D01*
G36*
X163642500Y-61155000D02*
G01*
X162242500Y-61155000D01*
X162242500Y-60655000D01*
X163642500Y-60655000D01*
X163642500Y-61155000D01*
G37*
X163642500Y-61155000D02*
X162242500Y-61155000D01*
X162242500Y-60655000D01*
X163642500Y-60655000D01*
X163642500Y-61155000D01*
G36*
X169657000Y-61155000D02*
G01*
X168457000Y-61155000D01*
X168457000Y-60655000D01*
X169657000Y-60655000D01*
X169657000Y-61155000D01*
G37*
X169657000Y-61155000D02*
X168457000Y-61155000D01*
X168457000Y-60655000D01*
X169657000Y-60655000D01*
X169657000Y-61155000D01*
G36*
X168182000Y-58900000D02*
G01*
X166682000Y-58900000D01*
X166682000Y-57400000D01*
X168182000Y-57400000D01*
X168182000Y-58900000D01*
G37*
X168182000Y-58900000D02*
X166682000Y-58900000D01*
X166682000Y-57400000D01*
X168182000Y-57400000D01*
X168182000Y-58900000D01*
G36*
X163642500Y-57345000D02*
G01*
X162242500Y-57345000D01*
X162242500Y-56845000D01*
X163642500Y-56845000D01*
X163642500Y-57345000D01*
G37*
X163642500Y-57345000D02*
X162242500Y-57345000D01*
X162242500Y-56845000D01*
X163642500Y-56845000D01*
X163642500Y-57345000D01*
G36*
X163642500Y-58615000D02*
G01*
X162242500Y-58615000D01*
X162242500Y-58115000D01*
X163642500Y-58115000D01*
X163642500Y-58615000D01*
G37*
X163642500Y-58615000D02*
X162242500Y-58615000D01*
X162242500Y-58115000D01*
X163642500Y-58115000D01*
X163642500Y-58615000D01*
G36*
X166482000Y-58900000D02*
G01*
X164982000Y-58900000D01*
X164982000Y-57400000D01*
X166482000Y-57400000D01*
X166482000Y-58900000D01*
G37*
X166482000Y-58900000D02*
X164982000Y-58900000D01*
X164982000Y-57400000D01*
X166482000Y-57400000D01*
X166482000Y-58900000D01*
G36*
X169657000Y-58615000D02*
G01*
X168457000Y-58615000D01*
X168457000Y-58115000D01*
X169657000Y-58115000D01*
X169657000Y-58615000D01*
G37*
X169657000Y-58615000D02*
X168457000Y-58615000D01*
X168457000Y-58115000D01*
X169657000Y-58115000D01*
X169657000Y-58615000D01*
G36*
X163642500Y-59885000D02*
G01*
X162242500Y-59885000D01*
X162242500Y-59385000D01*
X163642500Y-59385000D01*
X163642500Y-59885000D01*
G37*
X163642500Y-59885000D02*
X162242500Y-59885000D01*
X162242500Y-59385000D01*
X163642500Y-59385000D01*
X163642500Y-59885000D01*
G36*
X169657000Y-59885000D02*
G01*
X168457000Y-59885000D01*
X168457000Y-59385000D01*
X169657000Y-59385000D01*
X169657000Y-59885000D01*
G37*
X169657000Y-59885000D02*
X168457000Y-59885000D01*
X168457000Y-59385000D01*
X169657000Y-59385000D01*
X169657000Y-59885000D01*
G36*
X166482000Y-60600000D02*
G01*
X164982000Y-60600000D01*
X164982000Y-59100000D01*
X166482000Y-59100000D01*
X166482000Y-60600000D01*
G37*
X166482000Y-60600000D02*
X164982000Y-60600000D01*
X164982000Y-59100000D01*
X166482000Y-59100000D01*
X166482000Y-60600000D01*
%TO.C,Q4*%
G36*
X159642500Y-102885000D02*
G01*
X158242500Y-102885000D01*
X158242500Y-102385000D01*
X159642500Y-102385000D01*
X159642500Y-102885000D01*
G37*
X159642500Y-102885000D02*
X158242500Y-102885000D01*
X158242500Y-102385000D01*
X159642500Y-102385000D01*
X159642500Y-102885000D01*
G36*
X164182000Y-103600000D02*
G01*
X162682000Y-103600000D01*
X162682000Y-102100000D01*
X164182000Y-102100000D01*
X164182000Y-103600000D01*
G37*
X164182000Y-103600000D02*
X162682000Y-103600000D01*
X162682000Y-102100000D01*
X164182000Y-102100000D01*
X164182000Y-103600000D01*
G36*
X162482000Y-101900000D02*
G01*
X160982000Y-101900000D01*
X160982000Y-100400000D01*
X162482000Y-100400000D01*
X162482000Y-101900000D01*
G37*
X162482000Y-101900000D02*
X160982000Y-101900000D01*
X160982000Y-100400000D01*
X162482000Y-100400000D01*
X162482000Y-101900000D01*
G36*
X165657000Y-102885000D02*
G01*
X164457000Y-102885000D01*
X164457000Y-102385000D01*
X165657000Y-102385000D01*
X165657000Y-102885000D01*
G37*
X165657000Y-102885000D02*
X164457000Y-102885000D01*
X164457000Y-102385000D01*
X165657000Y-102385000D01*
X165657000Y-102885000D01*
G36*
X159642500Y-104155000D02*
G01*
X158242500Y-104155000D01*
X158242500Y-103655000D01*
X159642500Y-103655000D01*
X159642500Y-104155000D01*
G37*
X159642500Y-104155000D02*
X158242500Y-104155000D01*
X158242500Y-103655000D01*
X159642500Y-103655000D01*
X159642500Y-104155000D01*
G36*
X159642500Y-100345000D02*
G01*
X158242500Y-100345000D01*
X158242500Y-99845000D01*
X159642500Y-99845000D01*
X159642500Y-100345000D01*
G37*
X159642500Y-100345000D02*
X158242500Y-100345000D01*
X158242500Y-99845000D01*
X159642500Y-99845000D01*
X159642500Y-100345000D01*
G36*
X164182000Y-101900000D02*
G01*
X162682000Y-101900000D01*
X162682000Y-100400000D01*
X164182000Y-100400000D01*
X164182000Y-101900000D01*
G37*
X164182000Y-101900000D02*
X162682000Y-101900000D01*
X162682000Y-100400000D01*
X164182000Y-100400000D01*
X164182000Y-101900000D01*
G36*
X162482000Y-103600000D02*
G01*
X160982000Y-103600000D01*
X160982000Y-102100000D01*
X162482000Y-102100000D01*
X162482000Y-103600000D01*
G37*
X162482000Y-103600000D02*
X160982000Y-103600000D01*
X160982000Y-102100000D01*
X162482000Y-102100000D01*
X162482000Y-103600000D01*
G36*
X159642500Y-101615000D02*
G01*
X158242500Y-101615000D01*
X158242500Y-101115000D01*
X159642500Y-101115000D01*
X159642500Y-101615000D01*
G37*
X159642500Y-101615000D02*
X158242500Y-101615000D01*
X158242500Y-101115000D01*
X159642500Y-101115000D01*
X159642500Y-101615000D01*
G36*
X165657000Y-104155000D02*
G01*
X164457000Y-104155000D01*
X164457000Y-103655000D01*
X165657000Y-103655000D01*
X165657000Y-104155000D01*
G37*
X165657000Y-104155000D02*
X164457000Y-104155000D01*
X164457000Y-103655000D01*
X165657000Y-103655000D01*
X165657000Y-104155000D01*
G36*
X165657000Y-101615000D02*
G01*
X164457000Y-101615000D01*
X164457000Y-101115000D01*
X165657000Y-101115000D01*
X165657000Y-101615000D01*
G37*
X165657000Y-101615000D02*
X164457000Y-101615000D01*
X164457000Y-101115000D01*
X165657000Y-101115000D01*
X165657000Y-101615000D01*
G36*
X165657000Y-100345000D02*
G01*
X164457000Y-100345000D01*
X164457000Y-99845000D01*
X165657000Y-99845000D01*
X165657000Y-100345000D01*
G37*
X165657000Y-100345000D02*
X164457000Y-100345000D01*
X164457000Y-99845000D01*
X165657000Y-99845000D01*
X165657000Y-100345000D01*
%TO.C,Q2*%
G36*
X158182000Y-59600000D02*
G01*
X156682000Y-59600000D01*
X156682000Y-58100000D01*
X158182000Y-58100000D01*
X158182000Y-59600000D01*
G37*
X158182000Y-59600000D02*
X156682000Y-59600000D01*
X156682000Y-58100000D01*
X158182000Y-58100000D01*
X158182000Y-59600000D01*
G36*
X159657000Y-56345000D02*
G01*
X158457000Y-56345000D01*
X158457000Y-55845000D01*
X159657000Y-55845000D01*
X159657000Y-56345000D01*
G37*
X159657000Y-56345000D02*
X158457000Y-56345000D01*
X158457000Y-55845000D01*
X159657000Y-55845000D01*
X159657000Y-56345000D01*
G36*
X156482000Y-59600000D02*
G01*
X154982000Y-59600000D01*
X154982000Y-58100000D01*
X156482000Y-58100000D01*
X156482000Y-59600000D01*
G37*
X156482000Y-59600000D02*
X154982000Y-59600000D01*
X154982000Y-58100000D01*
X156482000Y-58100000D01*
X156482000Y-59600000D01*
G36*
X159657000Y-58885000D02*
G01*
X158457000Y-58885000D01*
X158457000Y-58385000D01*
X159657000Y-58385000D01*
X159657000Y-58885000D01*
G37*
X159657000Y-58885000D02*
X158457000Y-58885000D01*
X158457000Y-58385000D01*
X159657000Y-58385000D01*
X159657000Y-58885000D01*
G36*
X159657000Y-60155000D02*
G01*
X158457000Y-60155000D01*
X158457000Y-59655000D01*
X159657000Y-59655000D01*
X159657000Y-60155000D01*
G37*
X159657000Y-60155000D02*
X158457000Y-60155000D01*
X158457000Y-59655000D01*
X159657000Y-59655000D01*
X159657000Y-60155000D01*
G36*
X153642500Y-58885000D02*
G01*
X152242500Y-58885000D01*
X152242500Y-58385000D01*
X153642500Y-58385000D01*
X153642500Y-58885000D01*
G37*
X153642500Y-58885000D02*
X152242500Y-58885000D01*
X152242500Y-58385000D01*
X153642500Y-58385000D01*
X153642500Y-58885000D01*
G36*
X153642500Y-60155000D02*
G01*
X152242500Y-60155000D01*
X152242500Y-59655000D01*
X153642500Y-59655000D01*
X153642500Y-60155000D01*
G37*
X153642500Y-60155000D02*
X152242500Y-60155000D01*
X152242500Y-59655000D01*
X153642500Y-59655000D01*
X153642500Y-60155000D01*
G36*
X153642500Y-57615000D02*
G01*
X152242500Y-57615000D01*
X152242500Y-57115000D01*
X153642500Y-57115000D01*
X153642500Y-57615000D01*
G37*
X153642500Y-57615000D02*
X152242500Y-57615000D01*
X152242500Y-57115000D01*
X153642500Y-57115000D01*
X153642500Y-57615000D01*
G36*
X153642500Y-56345000D02*
G01*
X152242500Y-56345000D01*
X152242500Y-55845000D01*
X153642500Y-55845000D01*
X153642500Y-56345000D01*
G37*
X153642500Y-56345000D02*
X152242500Y-56345000D01*
X152242500Y-55845000D01*
X153642500Y-55845000D01*
X153642500Y-56345000D01*
G36*
X158182000Y-57900000D02*
G01*
X156682000Y-57900000D01*
X156682000Y-56400000D01*
X158182000Y-56400000D01*
X158182000Y-57900000D01*
G37*
X158182000Y-57900000D02*
X156682000Y-57900000D01*
X156682000Y-56400000D01*
X158182000Y-56400000D01*
X158182000Y-57900000D01*
G36*
X159657000Y-57615000D02*
G01*
X158457000Y-57615000D01*
X158457000Y-57115000D01*
X159657000Y-57115000D01*
X159657000Y-57615000D01*
G37*
X159657000Y-57615000D02*
X158457000Y-57615000D01*
X158457000Y-57115000D01*
X159657000Y-57115000D01*
X159657000Y-57615000D01*
G36*
X156482000Y-57900000D02*
G01*
X154982000Y-57900000D01*
X154982000Y-56400000D01*
X156482000Y-56400000D01*
X156482000Y-57900000D01*
G37*
X156482000Y-57900000D02*
X154982000Y-57900000D01*
X154982000Y-56400000D01*
X156482000Y-56400000D01*
X156482000Y-57900000D01*
%TD*%
D11*
%TO.C,C8*%
X128530000Y-109474500D03*
X128530000Y-111549500D03*
%TD*%
D12*
%TO.C,R15*%
X136008900Y-95525000D03*
X136008900Y-93700000D03*
%TD*%
D13*
%TO.C,R9*%
X132124600Y-93700000D03*
X133949600Y-93700000D03*
%TD*%
D14*
%TO.C,R12*%
X135245000Y-58315000D03*
X135245000Y-60140000D03*
%TD*%
%TO.C,R16*%
X135275000Y-107168100D03*
X135275000Y-108993100D03*
%TD*%
D15*
%TO.C,C2*%
X112950000Y-87652500D03*
X112950000Y-84527500D03*
%TD*%
D13*
%TO.C,R28*%
X168087500Y-77000000D03*
X169912500Y-77000000D03*
%TD*%
D14*
%TO.C,R14*%
X135140000Y-81727500D03*
X135140000Y-83552500D03*
%TD*%
D16*
%TO.C,D9*%
X132991100Y-121695000D03*
X129841100Y-121695000D03*
%TD*%
D13*
%TO.C,R4*%
X103807500Y-75700000D03*
X105632500Y-75700000D03*
%TD*%
D16*
%TO.C,D8*%
X132329000Y-106455000D03*
X129179000Y-106455000D03*
%TD*%
D17*
%TO.C,U4*%
X164905000Y-76550000D03*
X163635000Y-76550000D03*
X162365000Y-76550000D03*
X161095000Y-76550000D03*
X161095000Y-81450000D03*
X162365000Y-81450000D03*
X163635000Y-81450000D03*
X164905000Y-81450000D03*
%TD*%
D13*
%TO.C,R10*%
X131365300Y-108995000D03*
X133190300Y-108995000D03*
%TD*%
D16*
%TO.C,D6*%
X132197400Y-81000000D03*
X129047400Y-81000000D03*
%TD*%
D12*
%TO.C,R13*%
X136110500Y-72126900D03*
X136110500Y-70301900D03*
%TD*%
D15*
%TO.C,C5*%
X129047400Y-70122200D03*
X129047400Y-66997200D03*
%TD*%
D16*
%TO.C,D7*%
X133088300Y-96240000D03*
X129938300Y-96240000D03*
%TD*%
D15*
%TO.C,C3*%
X113405000Y-113147500D03*
X113405000Y-110022500D03*
%TD*%
D12*
%TO.C,R26*%
X158000000Y-79912500D03*
X158000000Y-78087500D03*
%TD*%
D13*
%TO.C,R24*%
X167087500Y-74000000D03*
X168912500Y-74000000D03*
%TD*%
%TO.C,R25*%
X162087500Y-85200000D03*
X163912500Y-85200000D03*
%TD*%
D18*
%TO.C,C10*%
X175037500Y-75980000D03*
X172962500Y-75980000D03*
%TD*%
D12*
%TO.C,R3*%
X104440000Y-60075000D03*
X104440000Y-58250000D03*
%TD*%
%TO.C,R1*%
X155000000Y-77912500D03*
X155000000Y-76087500D03*
%TD*%
D16*
%TO.C,D5*%
X133137000Y-72835000D03*
X129987000Y-72835000D03*
%TD*%
D13*
%TO.C,R7*%
X132173500Y-70300000D03*
X133998500Y-70300000D03*
%TD*%
D14*
%TO.C,R27*%
X158000000Y-82087500D03*
X158000000Y-83912500D03*
%TD*%
D12*
%TO.C,R21*%
X158000000Y-87912500D03*
X158000000Y-86087500D03*
%TD*%
D11*
%TO.C,C6*%
X128412400Y-84005000D03*
X128412400Y-86080000D03*
%TD*%
D15*
%TO.C,C9*%
X129052000Y-118977200D03*
X129052000Y-115852200D03*
%TD*%
D12*
%TO.C,R17*%
X136013500Y-120980000D03*
X136013500Y-119155000D03*
%TD*%
D19*
%TO.C,C11*%
X169000000Y-87037500D03*
X169000000Y-84962500D03*
%TD*%
D11*
%TO.C,C4*%
X128500000Y-60600000D03*
X128500000Y-62675000D03*
%TD*%
D20*
%TO.C,R23*%
X163912500Y-88200000D03*
X162087500Y-88200000D03*
%TD*%
D13*
%TO.C,R5*%
X103820000Y-104300000D03*
X105645000Y-104300000D03*
%TD*%
D14*
%TO.C,R29*%
X169000000Y-80087500D03*
X169000000Y-81912500D03*
%TD*%
D13*
%TO.C,R22*%
X162087500Y-73000000D03*
X163912500Y-73000000D03*
%TD*%
%TO.C,R2*%
X153087500Y-80000000D03*
X154912500Y-80000000D03*
%TD*%
%TO.C,R6*%
X131284500Y-60140000D03*
X133109500Y-60140000D03*
%TD*%
D21*
%TO.C,R19*%
X167050000Y-93000000D03*
X160950000Y-93000000D03*
%TD*%
D16*
%TO.C,D4*%
X132299000Y-57595000D03*
X129149000Y-57595000D03*
%TD*%
D14*
%TO.C,R20*%
X158000000Y-73087500D03*
X158000000Y-74912500D03*
%TD*%
D21*
%TO.C,R18*%
X165050000Y-68000000D03*
X158950000Y-68000000D03*
%TD*%
D13*
%TO.C,R11*%
X132033000Y-119155000D03*
X133858000Y-119155000D03*
%TD*%
D22*
%TO.C,C1*%
X111937500Y-60150000D03*
X115062500Y-60150000D03*
%TD*%
D15*
%TO.C,C7*%
X129047400Y-93522200D03*
X129047400Y-90397200D03*
%TD*%
D13*
%TO.C,R8*%
X131206400Y-83540000D03*
X133031400Y-83540000D03*
%TD*%
M02*
