%TF.GenerationSoftware,KiCad,Pcbnew,6.0.10-86aedd382b~118~ubuntu20.04.1*%
%TF.CreationDate,2023-01-20T20:18:41+03:00*%
%TF.ProjectId,PMSM_driver,504d534d-5f64-4726-9976-65722e6b6963,v0.1*%
%TF.SameCoordinates,Original*%
%TF.FileFunction,Drillmap*%
%TF.FilePolarity,Positive*%
%FSLAX45Y45*%
G04 Gerber Fmt 4.5, Leading zero omitted, Abs format (unit mm)*
G04 Created by KiCad (PCBNEW 6.0.10-86aedd382b~118~ubuntu20.04.1) date 2023-01-20 20:18:41*
%MOMM*%
%LPD*%
G01*
G04 APERTURE LIST*
%ADD10C,0.100000*%
%ADD11C,0.200000*%
G04 APERTURE END LIST*
D10*
X14800000Y-12200000D02*
G75*
G03*
X14600000Y-12200000I-100000J0D01*
G01*
X14600000Y-6500000D02*
X14600000Y-9300000D01*
X18400000Y-12700000D02*
X14800000Y-12700000D01*
X9800000Y-12700000D02*
X14600000Y-12700000D01*
X14600000Y-5100000D02*
X9800000Y-5100000D01*
X9800000Y-5100000D02*
X9800000Y-12700000D01*
X14600000Y-12200000D02*
X14600000Y-12700000D01*
X14600000Y-10000000D02*
X14600000Y-11500000D01*
X14600000Y-9300000D02*
G75*
G03*
X14800000Y-9300000I100000J0D01*
G01*
X14800000Y-5100000D02*
X14800000Y-5800000D01*
X14800000Y-10000000D02*
G75*
G03*
X14600000Y-10000000I-100000J0D01*
G01*
X14600000Y-5800000D02*
G75*
G03*
X14800000Y-5800000I100000J0D01*
G01*
X18400000Y-5100000D02*
X18400000Y-12700000D01*
X14800000Y-12200000D02*
X14800000Y-12700000D01*
X14800000Y-5100000D02*
X18400000Y-5100000D01*
X14600000Y-11500000D02*
G75*
G03*
X14800000Y-11500000I100000J0D01*
G01*
X14800000Y-11500000D02*
X14800000Y-10000000D01*
X14800000Y-9300000D02*
X14800000Y-6500000D01*
X14800000Y-6500000D02*
G75*
G03*
X14600000Y-6500000I-100000J0D01*
G01*
X14600000Y-5800000D02*
X14600000Y-5100000D01*
D11*
X10052619Y-13015476D02*
X10052619Y-12815476D01*
X10100238Y-12815476D01*
X10128810Y-12825000D01*
X10147857Y-12844048D01*
X10157381Y-12863095D01*
X10166905Y-12901190D01*
X10166905Y-12929762D01*
X10157381Y-12967857D01*
X10147857Y-12986905D01*
X10128810Y-13005952D01*
X10100238Y-13015476D01*
X10052619Y-13015476D01*
X10252619Y-13015476D02*
X10252619Y-12882143D01*
X10252619Y-12920238D02*
X10262143Y-12901190D01*
X10271667Y-12891667D01*
X10290714Y-12882143D01*
X10309762Y-12882143D01*
X10376429Y-13015476D02*
X10376429Y-12882143D01*
X10376429Y-12815476D02*
X10366905Y-12825000D01*
X10376429Y-12834524D01*
X10385952Y-12825000D01*
X10376429Y-12815476D01*
X10376429Y-12834524D01*
X10500238Y-13015476D02*
X10481190Y-13005952D01*
X10471667Y-12986905D01*
X10471667Y-12815476D01*
X10605000Y-13015476D02*
X10585952Y-13005952D01*
X10576429Y-12986905D01*
X10576429Y-12815476D01*
X10833571Y-13015476D02*
X10833571Y-12815476D01*
X10900238Y-12958333D01*
X10966905Y-12815476D01*
X10966905Y-13015476D01*
X11147857Y-13015476D02*
X11147857Y-12910714D01*
X11138333Y-12891667D01*
X11119286Y-12882143D01*
X11081190Y-12882143D01*
X11062143Y-12891667D01*
X11147857Y-13005952D02*
X11128810Y-13015476D01*
X11081190Y-13015476D01*
X11062143Y-13005952D01*
X11052619Y-12986905D01*
X11052619Y-12967857D01*
X11062143Y-12948809D01*
X11081190Y-12939286D01*
X11128810Y-12939286D01*
X11147857Y-12929762D01*
X11243095Y-12882143D02*
X11243095Y-13082143D01*
X11243095Y-12891667D02*
X11262143Y-12882143D01*
X11300238Y-12882143D01*
X11319286Y-12891667D01*
X11328809Y-12901190D01*
X11338333Y-12920238D01*
X11338333Y-12977381D01*
X11328809Y-12996428D01*
X11319286Y-13005952D01*
X11300238Y-13015476D01*
X11262143Y-13015476D01*
X11243095Y-13005952D01*
X11424048Y-12996428D02*
X11433571Y-13005952D01*
X11424048Y-13015476D01*
X11414524Y-13005952D01*
X11424048Y-12996428D01*
X11424048Y-13015476D01*
X11424048Y-12891667D02*
X11433571Y-12901190D01*
X11424048Y-12910714D01*
X11414524Y-12901190D01*
X11424048Y-12891667D01*
X11424048Y-12910714D01*
M02*
