%TF.GenerationSoftware,KiCad,Pcbnew,6.0.10-86aedd382b~118~ubuntu20.04.1*%
%TF.CreationDate,2023-01-20T20:18:30+03:00*%
%TF.ProjectId,PMSM_driver,504d534d-5f64-4726-9976-65722e6b6963,v0.1*%
%TF.SameCoordinates,Original*%
%TF.FileFunction,Soldermask,Top*%
%TF.FilePolarity,Negative*%
%FSLAX46Y46*%
G04 Gerber Fmt 4.6, Leading zero omitted, Abs format (unit mm)*
G04 Created by KiCad (PCBNEW 6.0.10-86aedd382b~118~ubuntu20.04.1) date 2023-01-20 20:18:30*
%MOMM*%
%LPD*%
G01*
G04 APERTURE LIST*
G04 Aperture macros list*
%AMRoundRect*
0 Rectangle with rounded corners*
0 $1 Rounding radius*
0 $2 $3 $4 $5 $6 $7 $8 $9 X,Y pos of 4 corners*
0 Add a 4 corners polygon primitive as box body*
4,1,4,$2,$3,$4,$5,$6,$7,$8,$9,$2,$3,0*
0 Add four circle primitives for the rounded corners*
1,1,$1+$1,$2,$3*
1,1,$1+$1,$4,$5*
1,1,$1+$1,$6,$7*
1,1,$1+$1,$8,$9*
0 Add four rect primitives between the rounded corners*
20,1,$1+$1,$2,$3,$4,$5,0*
20,1,$1+$1,$4,$5,$6,$7,0*
20,1,$1+$1,$6,$7,$8,$9,0*
20,1,$1+$1,$8,$9,$2,$3,0*%
G04 Aperture macros list end*
%ADD10C,0.010000*%
%ADD11C,0.001000*%
%ADD12R,1.500000X0.600000*%
%ADD13RoundRect,0.250000X-0.475000X0.337500X-0.475000X-0.337500X0.475000X-0.337500X0.475000X0.337500X0*%
%ADD14C,1.500000*%
%ADD15RoundRect,0.237500X0.237500X-0.250000X0.237500X0.250000X-0.237500X0.250000X-0.237500X-0.250000X0*%
%ADD16RoundRect,0.237500X-0.250000X-0.237500X0.250000X-0.237500X0.250000X0.237500X-0.250000X0.237500X0*%
%ADD17R,4.000000X4.000000*%
%ADD18RoundRect,0.237500X-0.237500X0.250000X-0.237500X-0.250000X0.237500X-0.250000X0.237500X0.250000X0*%
%ADD19R,2.200000X2.200000*%
%ADD20O,2.200000X2.200000*%
%ADD21RoundRect,0.250000X1.100000X-0.412500X1.100000X0.412500X-1.100000X0.412500X-1.100000X-0.412500X0*%
%ADD22R,1.700000X1.700000*%
%ADD23O,1.700000X1.700000*%
%ADD24R,0.900000X0.950000*%
%ADD25R,2.600000X2.600000*%
%ADD26C,2.600000*%
%ADD27R,0.600000X2.000000*%
%ADD28RoundRect,0.250000X0.337500X0.475000X-0.337500X0.475000X-0.337500X-0.475000X0.337500X-0.475000X0*%
%ADD29R,1.600000X1.600000*%
%ADD30O,1.600000X1.600000*%
%ADD31RoundRect,0.250000X0.475000X-0.337500X0.475000X0.337500X-0.475000X0.337500X-0.475000X-0.337500X0*%
%ADD32RoundRect,0.237500X0.250000X0.237500X-0.250000X0.237500X-0.250000X-0.237500X0.250000X-0.237500X0*%
%ADD33RoundRect,0.249999X0.450001X1.425001X-0.450001X1.425001X-0.450001X-1.425001X0.450001X-1.425001X0*%
%ADD34RoundRect,0.250000X-0.412500X-1.100000X0.412500X-1.100000X0.412500X1.100000X-0.412500X1.100000X0*%
G04 APERTURE END LIST*
%TO.C,Q5*%
G36*
X175732500Y-119395000D02*
G01*
X174382500Y-119395000D01*
X174382500Y-118795000D01*
X175732500Y-118795000D01*
X175732500Y-119395000D01*
G37*
D10*
X175732500Y-119395000D02*
X174382500Y-119395000D01*
X174382500Y-118795000D01*
X175732500Y-118795000D01*
X175732500Y-119395000D01*
G36*
X175732500Y-123205000D02*
G01*
X174382500Y-123205000D01*
X174382500Y-122605000D01*
X175732500Y-122605000D01*
X175732500Y-123205000D01*
G37*
X175732500Y-123205000D02*
X174382500Y-123205000D01*
X174382500Y-122605000D01*
X175732500Y-122605000D01*
X175732500Y-123205000D01*
G36*
X175732500Y-121935000D02*
G01*
X174382500Y-121935000D01*
X174382500Y-121335000D01*
X175732500Y-121335000D01*
X175732500Y-121935000D01*
G37*
X175732500Y-121935000D02*
X174382500Y-121935000D01*
X174382500Y-121335000D01*
X175732500Y-121335000D01*
X175732500Y-121935000D01*
G36*
X175732500Y-120665000D02*
G01*
X174382500Y-120665000D01*
X174382500Y-120065000D01*
X175732500Y-120065000D01*
X175732500Y-120665000D01*
G37*
X175732500Y-120665000D02*
X174382500Y-120665000D01*
X174382500Y-120065000D01*
X175732500Y-120065000D01*
X175732500Y-120665000D01*
G36*
X175732000Y-119395000D02*
G01*
X174382000Y-119395000D01*
X174382000Y-123205000D01*
X170837000Y-123205000D01*
X170837000Y-118795000D01*
X175732000Y-118795000D01*
X175732000Y-119395000D01*
G37*
D11*
X175732000Y-119395000D02*
X174382000Y-119395000D01*
X174382000Y-123205000D01*
X170837000Y-123205000D01*
X170837000Y-118795000D01*
X175732000Y-118795000D01*
X175732000Y-119395000D01*
%TO.C,Q3*%
G36*
X175732500Y-102665000D02*
G01*
X174382500Y-102665000D01*
X174382500Y-102065000D01*
X175732500Y-102065000D01*
X175732500Y-102665000D01*
G37*
D10*
X175732500Y-102665000D02*
X174382500Y-102665000D01*
X174382500Y-102065000D01*
X175732500Y-102065000D01*
X175732500Y-102665000D01*
G36*
X175732500Y-105205000D02*
G01*
X174382500Y-105205000D01*
X174382500Y-104605000D01*
X175732500Y-104605000D01*
X175732500Y-105205000D01*
G37*
X175732500Y-105205000D02*
X174382500Y-105205000D01*
X174382500Y-104605000D01*
X175732500Y-104605000D01*
X175732500Y-105205000D01*
G36*
X175732500Y-101395000D02*
G01*
X174382500Y-101395000D01*
X174382500Y-100795000D01*
X175732500Y-100795000D01*
X175732500Y-101395000D01*
G37*
X175732500Y-101395000D02*
X174382500Y-101395000D01*
X174382500Y-100795000D01*
X175732500Y-100795000D01*
X175732500Y-101395000D01*
G36*
X175732000Y-101395000D02*
G01*
X174382000Y-101395000D01*
X174382000Y-105205000D01*
X170837000Y-105205000D01*
X170837000Y-100795000D01*
X175732000Y-100795000D01*
X175732000Y-101395000D01*
G37*
D11*
X175732000Y-101395000D02*
X174382000Y-101395000D01*
X174382000Y-105205000D01*
X170837000Y-105205000D01*
X170837000Y-100795000D01*
X175732000Y-100795000D01*
X175732000Y-101395000D01*
G36*
X175732500Y-103935000D02*
G01*
X174382500Y-103935000D01*
X174382500Y-103335000D01*
X175732500Y-103335000D01*
X175732500Y-103935000D01*
G37*
D10*
X175732500Y-103935000D02*
X174382500Y-103935000D01*
X174382500Y-103335000D01*
X175732500Y-103335000D01*
X175732500Y-103935000D01*
%TO.C,Q6*%
G36*
X165732500Y-122205000D02*
G01*
X164382500Y-122205000D01*
X164382500Y-121605000D01*
X165732500Y-121605000D01*
X165732500Y-122205000D01*
G37*
X165732500Y-122205000D02*
X164382500Y-122205000D01*
X164382500Y-121605000D01*
X165732500Y-121605000D01*
X165732500Y-122205000D01*
G36*
X165732000Y-118395000D02*
G01*
X164382000Y-118395000D01*
X164382000Y-122205000D01*
X160837000Y-122205000D01*
X160837000Y-117795000D01*
X165732000Y-117795000D01*
X165732000Y-118395000D01*
G37*
D11*
X165732000Y-118395000D02*
X164382000Y-118395000D01*
X164382000Y-122205000D01*
X160837000Y-122205000D01*
X160837000Y-117795000D01*
X165732000Y-117795000D01*
X165732000Y-118395000D01*
G36*
X165732500Y-119665000D02*
G01*
X164382500Y-119665000D01*
X164382500Y-119065000D01*
X165732500Y-119065000D01*
X165732500Y-119665000D01*
G37*
D10*
X165732500Y-119665000D02*
X164382500Y-119665000D01*
X164382500Y-119065000D01*
X165732500Y-119065000D01*
X165732500Y-119665000D01*
G36*
X165732500Y-118395000D02*
G01*
X164382500Y-118395000D01*
X164382500Y-117795000D01*
X165732500Y-117795000D01*
X165732500Y-118395000D01*
G37*
X165732500Y-118395000D02*
X164382500Y-118395000D01*
X164382500Y-117795000D01*
X165732500Y-117795000D01*
X165732500Y-118395000D01*
G36*
X165732500Y-120935000D02*
G01*
X164382500Y-120935000D01*
X164382500Y-120335000D01*
X165732500Y-120335000D01*
X165732500Y-120935000D01*
G37*
X165732500Y-120935000D02*
X164382500Y-120935000D01*
X164382500Y-120335000D01*
X165732500Y-120335000D01*
X165732500Y-120935000D01*
%TO.C,Q1*%
G36*
X169732500Y-59935000D02*
G01*
X168382500Y-59935000D01*
X168382500Y-59335000D01*
X169732500Y-59335000D01*
X169732500Y-59935000D01*
G37*
X169732500Y-59935000D02*
X168382500Y-59935000D01*
X168382500Y-59335000D01*
X169732500Y-59335000D01*
X169732500Y-59935000D01*
G36*
X169732500Y-57395000D02*
G01*
X168382500Y-57395000D01*
X168382500Y-56795000D01*
X169732500Y-56795000D01*
X169732500Y-57395000D01*
G37*
X169732500Y-57395000D02*
X168382500Y-57395000D01*
X168382500Y-56795000D01*
X169732500Y-56795000D01*
X169732500Y-57395000D01*
G36*
X169732000Y-57395000D02*
G01*
X168382000Y-57395000D01*
X168382000Y-61205000D01*
X164837000Y-61205000D01*
X164837000Y-56795000D01*
X169732000Y-56795000D01*
X169732000Y-57395000D01*
G37*
D11*
X169732000Y-57395000D02*
X168382000Y-57395000D01*
X168382000Y-61205000D01*
X164837000Y-61205000D01*
X164837000Y-56795000D01*
X169732000Y-56795000D01*
X169732000Y-57395000D01*
G36*
X169732500Y-58665000D02*
G01*
X168382500Y-58665000D01*
X168382500Y-58065000D01*
X169732500Y-58065000D01*
X169732500Y-58665000D01*
G37*
D10*
X169732500Y-58665000D02*
X168382500Y-58665000D01*
X168382500Y-58065000D01*
X169732500Y-58065000D01*
X169732500Y-58665000D01*
G36*
X169732500Y-61205000D02*
G01*
X168382500Y-61205000D01*
X168382500Y-60605000D01*
X169732500Y-60605000D01*
X169732500Y-61205000D01*
G37*
X169732500Y-61205000D02*
X168382500Y-61205000D01*
X168382500Y-60605000D01*
X169732500Y-60605000D01*
X169732500Y-61205000D01*
%TO.C,Q4*%
G36*
X165732500Y-101665000D02*
G01*
X164382500Y-101665000D01*
X164382500Y-101065000D01*
X165732500Y-101065000D01*
X165732500Y-101665000D01*
G37*
X165732500Y-101665000D02*
X164382500Y-101665000D01*
X164382500Y-101065000D01*
X165732500Y-101065000D01*
X165732500Y-101665000D01*
G36*
X165732500Y-102935000D02*
G01*
X164382500Y-102935000D01*
X164382500Y-102335000D01*
X165732500Y-102335000D01*
X165732500Y-102935000D01*
G37*
X165732500Y-102935000D02*
X164382500Y-102935000D01*
X164382500Y-102335000D01*
X165732500Y-102335000D01*
X165732500Y-102935000D01*
G36*
X165732000Y-100395000D02*
G01*
X164382000Y-100395000D01*
X164382000Y-104205000D01*
X160837000Y-104205000D01*
X160837000Y-99795000D01*
X165732000Y-99795000D01*
X165732000Y-100395000D01*
G37*
D11*
X165732000Y-100395000D02*
X164382000Y-100395000D01*
X164382000Y-104205000D01*
X160837000Y-104205000D01*
X160837000Y-99795000D01*
X165732000Y-99795000D01*
X165732000Y-100395000D01*
G36*
X165732500Y-100395000D02*
G01*
X164382500Y-100395000D01*
X164382500Y-99795000D01*
X165732500Y-99795000D01*
X165732500Y-100395000D01*
G37*
D10*
X165732500Y-100395000D02*
X164382500Y-100395000D01*
X164382500Y-99795000D01*
X165732500Y-99795000D01*
X165732500Y-100395000D01*
G36*
X165732500Y-104205000D02*
G01*
X164382500Y-104205000D01*
X164382500Y-103605000D01*
X165732500Y-103605000D01*
X165732500Y-104205000D01*
G37*
X165732500Y-104205000D02*
X164382500Y-104205000D01*
X164382500Y-103605000D01*
X165732500Y-103605000D01*
X165732500Y-104205000D01*
%TO.C,Q2*%
G36*
X159732500Y-60205000D02*
G01*
X158382500Y-60205000D01*
X158382500Y-59605000D01*
X159732500Y-59605000D01*
X159732500Y-60205000D01*
G37*
X159732500Y-60205000D02*
X158382500Y-60205000D01*
X158382500Y-59605000D01*
X159732500Y-59605000D01*
X159732500Y-60205000D01*
G36*
X159732500Y-57665000D02*
G01*
X158382500Y-57665000D01*
X158382500Y-57065000D01*
X159732500Y-57065000D01*
X159732500Y-57665000D01*
G37*
X159732500Y-57665000D02*
X158382500Y-57665000D01*
X158382500Y-57065000D01*
X159732500Y-57065000D01*
X159732500Y-57665000D01*
G36*
X159732500Y-56395000D02*
G01*
X158382500Y-56395000D01*
X158382500Y-55795000D01*
X159732500Y-55795000D01*
X159732500Y-56395000D01*
G37*
X159732500Y-56395000D02*
X158382500Y-56395000D01*
X158382500Y-55795000D01*
X159732500Y-55795000D01*
X159732500Y-56395000D01*
G36*
X159732000Y-56395000D02*
G01*
X158382000Y-56395000D01*
X158382000Y-60205000D01*
X154837000Y-60205000D01*
X154837000Y-55795000D01*
X159732000Y-55795000D01*
X159732000Y-56395000D01*
G37*
D11*
X159732000Y-56395000D02*
X158382000Y-56395000D01*
X158382000Y-60205000D01*
X154837000Y-60205000D01*
X154837000Y-55795000D01*
X159732000Y-55795000D01*
X159732000Y-56395000D01*
G36*
X159732500Y-58935000D02*
G01*
X158382500Y-58935000D01*
X158382500Y-58335000D01*
X159732500Y-58335000D01*
X159732500Y-58935000D01*
G37*
D10*
X159732500Y-58935000D02*
X158382500Y-58935000D01*
X158382500Y-58335000D01*
X159732500Y-58335000D01*
X159732500Y-58935000D01*
%TD*%
D12*
%TO.C,Q5*%
X168942500Y-119095000D03*
X168942500Y-120365000D03*
X168942500Y-121635000D03*
X168942500Y-122905000D03*
%TD*%
D13*
%TO.C,C8*%
X128530000Y-109474500D03*
X128530000Y-111549500D03*
%TD*%
D14*
%TO.C,TP7*%
X129830000Y-124200000D03*
%TD*%
D15*
%TO.C,R15*%
X136008900Y-95525000D03*
X136008900Y-93700000D03*
%TD*%
D16*
%TO.C,R9*%
X132124600Y-93700000D03*
X133949600Y-93700000D03*
%TD*%
D17*
%TO.C,J3*%
X175000000Y-70000000D03*
%TD*%
D18*
%TO.C,R12*%
X135245000Y-58315000D03*
X135245000Y-60140000D03*
%TD*%
%TO.C,R16*%
X135275000Y-107168100D03*
X135275000Y-108993100D03*
%TD*%
D19*
%TO.C,D2*%
X114600000Y-78300000D03*
D20*
X104440000Y-78300000D03*
%TD*%
D17*
%TO.C,J5*%
X175000000Y-112000000D03*
%TD*%
D21*
%TO.C,C2*%
X112950000Y-87652500D03*
X112950000Y-84527500D03*
%TD*%
D16*
%TO.C,R28*%
X168087500Y-77000000D03*
X169912500Y-77000000D03*
%TD*%
D22*
%TO.C,J1*%
X174000000Y-79500000D03*
D23*
X174000000Y-82040000D03*
X174000000Y-84580000D03*
%TD*%
D18*
%TO.C,R14*%
X135140000Y-81727500D03*
X135140000Y-83552500D03*
%TD*%
D24*
%TO.C,D9*%
X132991100Y-121695000D03*
X129841100Y-121695000D03*
%TD*%
D22*
%TO.C,J10*%
X151000000Y-84000000D03*
D23*
X153540000Y-84000000D03*
X151000000Y-86540000D03*
X153540000Y-86540000D03*
%TD*%
D16*
%TO.C,R4*%
X103807500Y-75700000D03*
X105632500Y-75700000D03*
%TD*%
D24*
%TO.C,D8*%
X132329000Y-106455000D03*
X129179000Y-106455000D03*
%TD*%
D25*
%TO.C,J2*%
X180000000Y-57695000D03*
D26*
X175000000Y-57695000D03*
%TD*%
D27*
%TO.C,U4*%
X164905000Y-76550000D03*
X163635000Y-76550000D03*
X162365000Y-76550000D03*
X161095000Y-76550000D03*
X161095000Y-81450000D03*
X162365000Y-81450000D03*
X163635000Y-81450000D03*
X164905000Y-81450000D03*
%TD*%
D12*
%TO.C,Q3*%
X168942500Y-101095000D03*
X168942500Y-102365000D03*
X168942500Y-103635000D03*
X168942500Y-104905000D03*
%TD*%
D16*
%TO.C,R10*%
X131365300Y-108995000D03*
X133190300Y-108995000D03*
%TD*%
D24*
%TO.C,D6*%
X132197400Y-81000000D03*
X129047400Y-81000000D03*
%TD*%
D15*
%TO.C,R13*%
X136110500Y-72126900D03*
X136110500Y-70301900D03*
%TD*%
D21*
%TO.C,C5*%
X129047400Y-70122200D03*
X129047400Y-66997200D03*
%TD*%
D24*
%TO.C,D7*%
X133088300Y-96240000D03*
X129938300Y-96240000D03*
%TD*%
D14*
%TO.C,TP4*%
X129000000Y-78300000D03*
%TD*%
D21*
%TO.C,C3*%
X113405000Y-113147500D03*
X113405000Y-110022500D03*
%TD*%
D15*
%TO.C,R26*%
X158000000Y-79912500D03*
X158000000Y-78087500D03*
%TD*%
D16*
%TO.C,R24*%
X167087500Y-74000000D03*
X168912500Y-74000000D03*
%TD*%
D19*
%TO.C,D1*%
X114600000Y-55400000D03*
D20*
X104440000Y-55400000D03*
%TD*%
D16*
%TO.C,R25*%
X162087500Y-85200000D03*
X163912500Y-85200000D03*
%TD*%
D25*
%TO.C,J6*%
X105695000Y-66000000D03*
D26*
X105695000Y-71000000D03*
%TD*%
D28*
%TO.C,C10*%
X175037500Y-75980000D03*
X172962500Y-75980000D03*
%TD*%
D15*
%TO.C,R3*%
X104440000Y-60075000D03*
X104440000Y-58250000D03*
%TD*%
%TO.C,R1*%
X155000000Y-77912500D03*
X155000000Y-76087500D03*
%TD*%
D12*
%TO.C,Q6*%
X158942500Y-118095000D03*
X158942500Y-119365000D03*
X158942500Y-120635000D03*
X158942500Y-121905000D03*
%TD*%
D24*
%TO.C,D5*%
X133137000Y-72835000D03*
X129987000Y-72835000D03*
%TD*%
D29*
%TO.C,U1*%
X125720000Y-72840000D03*
D30*
X125720000Y-70300000D03*
X125720000Y-67760000D03*
X125720000Y-65220000D03*
X125720000Y-62680000D03*
X125720000Y-60140000D03*
X125720000Y-57600000D03*
X118100000Y-57600000D03*
X118100000Y-60140000D03*
X118100000Y-62680000D03*
X118100000Y-65220000D03*
X118100000Y-67760000D03*
X118100000Y-70300000D03*
X118100000Y-72840000D03*
%TD*%
D12*
%TO.C,Q1*%
X162942500Y-57095000D03*
X162942500Y-58365000D03*
X162942500Y-59635000D03*
X162942500Y-60905000D03*
%TD*%
D16*
%TO.C,R7*%
X132173500Y-70300000D03*
X133998500Y-70300000D03*
%TD*%
D18*
%TO.C,R27*%
X158000000Y-82087500D03*
X158000000Y-83912500D03*
%TD*%
D15*
%TO.C,R21*%
X158000000Y-87912500D03*
X158000000Y-86087500D03*
%TD*%
D13*
%TO.C,C6*%
X128412400Y-84005000D03*
X128412400Y-86080000D03*
%TD*%
D21*
%TO.C,C9*%
X129052000Y-118977200D03*
X129052000Y-115852200D03*
%TD*%
D15*
%TO.C,R17*%
X136013500Y-120980000D03*
X136013500Y-119155000D03*
%TD*%
D31*
%TO.C,C11*%
X169000000Y-87037500D03*
X169000000Y-84962500D03*
%TD*%
D13*
%TO.C,C4*%
X128500000Y-60600000D03*
X128500000Y-62675000D03*
%TD*%
D14*
%TO.C,TP1*%
X155000000Y-73700000D03*
%TD*%
D32*
%TO.C,R23*%
X163912500Y-88200000D03*
X162087500Y-88200000D03*
%TD*%
D22*
%TO.C,J12*%
X140500000Y-109000000D03*
D23*
X143040000Y-109000000D03*
X140500000Y-111540000D03*
X143040000Y-111540000D03*
%TD*%
D14*
%TO.C,TP6*%
X129200000Y-103900000D03*
%TD*%
D16*
%TO.C,R5*%
X103820000Y-104300000D03*
X105645000Y-104300000D03*
%TD*%
D22*
%TO.C,J8*%
X140500000Y-68000000D03*
D23*
X143040000Y-68000000D03*
X140500000Y-70540000D03*
X143040000Y-70540000D03*
%TD*%
D18*
%TO.C,R29*%
X169000000Y-80087500D03*
X169000000Y-81912500D03*
%TD*%
D22*
%TO.C,J11*%
X140500000Y-84000000D03*
D23*
X143040000Y-84000000D03*
X140500000Y-86540000D03*
X143040000Y-86540000D03*
%TD*%
D16*
%TO.C,R22*%
X162087500Y-73000000D03*
X163912500Y-73000000D03*
%TD*%
D29*
%TO.C,U3*%
X125750000Y-121700000D03*
D30*
X125750000Y-119160000D03*
X125750000Y-116620000D03*
X125750000Y-114080000D03*
X125750000Y-111540000D03*
X125750000Y-109000000D03*
X125750000Y-106460000D03*
X118130000Y-106460000D03*
X118130000Y-109000000D03*
X118130000Y-111540000D03*
X118130000Y-114080000D03*
X118130000Y-116620000D03*
X118130000Y-119160000D03*
X118130000Y-121700000D03*
%TD*%
D22*
%TO.C,J13*%
X151000000Y-109000000D03*
D23*
X153540000Y-109000000D03*
X151000000Y-111540000D03*
X153540000Y-111540000D03*
%TD*%
D12*
%TO.C,Q4*%
X158942500Y-100095000D03*
X158942500Y-101365000D03*
X158942500Y-102635000D03*
X158942500Y-103905000D03*
%TD*%
D16*
%TO.C,R2*%
X153087500Y-80000000D03*
X154912500Y-80000000D03*
%TD*%
D12*
%TO.C,Q2*%
X152942500Y-56095000D03*
X152942500Y-57365000D03*
X152942500Y-58635000D03*
X152942500Y-59905000D03*
%TD*%
D16*
%TO.C,R6*%
X131284500Y-60140000D03*
X133109500Y-60140000D03*
%TD*%
D14*
%TO.C,TP5*%
X132100000Y-91400000D03*
%TD*%
D33*
%TO.C,R19*%
X167050000Y-93000000D03*
X160950000Y-93000000D03*
%TD*%
D22*
%TO.C,J7*%
X105000000Y-83540000D03*
D23*
X107540000Y-83540000D03*
X105000000Y-86080000D03*
X107540000Y-86080000D03*
X105000000Y-88620000D03*
X107540000Y-88620000D03*
X105000000Y-91160000D03*
X107540000Y-91160000D03*
X105000000Y-93700000D03*
X107540000Y-93700000D03*
%TD*%
D29*
%TO.C,U2*%
X125745400Y-96240000D03*
D30*
X125745400Y-93700000D03*
X125745400Y-91160000D03*
X125745400Y-88620000D03*
X125745400Y-86080000D03*
X125745400Y-83540000D03*
X125745400Y-81000000D03*
X118125400Y-81000000D03*
X118125400Y-83540000D03*
X118125400Y-86080000D03*
X118125400Y-88620000D03*
X118125400Y-91160000D03*
X118125400Y-93700000D03*
X118125400Y-96240000D03*
%TD*%
D14*
%TO.C,TP2*%
X129100000Y-55100000D03*
%TD*%
%TO.C,TP3*%
X132200000Y-67900000D03*
%TD*%
D24*
%TO.C,D4*%
X132299000Y-57595000D03*
X129149000Y-57595000D03*
%TD*%
D18*
%TO.C,R20*%
X158000000Y-73087500D03*
X158000000Y-74912500D03*
%TD*%
D33*
%TO.C,R18*%
X165050000Y-68000000D03*
X158950000Y-68000000D03*
%TD*%
D16*
%TO.C,R11*%
X132033000Y-119155000D03*
X133858000Y-119155000D03*
%TD*%
D34*
%TO.C,C1*%
X111937500Y-60150000D03*
X115062500Y-60150000D03*
%TD*%
D19*
%TO.C,D3*%
X114600000Y-101300000D03*
D20*
X104440000Y-101300000D03*
%TD*%
D21*
%TO.C,C7*%
X129047400Y-93522200D03*
X129047400Y-90397200D03*
%TD*%
D17*
%TO.C,J4*%
X175000000Y-91000000D03*
%TD*%
D22*
%TO.C,J9*%
X151000000Y-68000000D03*
D23*
X153540000Y-68000000D03*
X151000000Y-70540000D03*
X153540000Y-70540000D03*
%TD*%
D16*
%TO.C,R8*%
X131206400Y-83540000D03*
X133031400Y-83540000D03*
%TD*%
M02*
